<svg width="30" height="30" viewBox="0 0 30 30" fill="none" xmlns="http://www.w3.org/2000/svg">
<path fill-rule="evenodd" clip-rule="evenodd" d="M15 2.68424C19.0112 2.68424 19.4863 2.69953 21.0703 2.77181C22.5352 2.83863 23.3305 3.08335 23.8599 3.28907C24.561 3.56153 25.0614 3.88717 25.5872 4.41281C26.1131 4.93846 26.4383 5.43894 26.7108 6.14016C26.9164 6.66949 27.1614 7.46496 27.2282 8.9296C27.3005 10.5137 27.3158 10.9888 27.3158 14.9999C27.3158 19.011 27.3005 19.4862 27.2282 21.0702C27.1614 22.5351 26.9164 23.3304 26.7108 23.8598C26.4383 24.5609 26.1128 25.0613 25.5872 25.5869C25.0617 26.1125 24.561 26.4382 23.8599 26.7107C23.3305 26.9164 22.5351 27.1613 21.0703 27.2281C19.4865 27.3004 19.0114 27.3157 15 27.3157C10.9886 27.3157 10.5135 27.3004 8.92969 27.2281C7.46502 27.1613 6.66955 26.9164 6.14021 26.7107C5.43899 26.4382 4.93857 26.1127 4.4129 25.5872C3.88723 25.0616 3.56165 24.5609 3.28913 23.8598C3.08341 23.3304 2.83869 22.535 2.77187 21.0703C2.69959 19.4862 2.6843 19.0111 2.6843 14.9999C2.6843 10.9888 2.69959 10.5136 2.77187 8.92963C2.83869 7.46496 3.08341 6.66949 3.28913 6.14016C3.56159 5.43894 3.8872 4.93852 4.41287 4.41284C4.93855 3.88717 5.43899 3.56159 6.14021 3.28907C6.66955 3.08335 7.46502 2.83863 8.92966 2.77181C10.5137 2.69953 10.9889 2.68424 15 2.68424H15ZM15 0C10.9263 0 10.4155 0.017285 8.81543 0.0902635C7.21875 0.163125 6.1285 0.41669 5.17433 0.78753C4.18799 1.17085 3.35145 1.68372 2.51754 2.51763C1.68363 3.35153 1.17076 4.18808 0.787441 5.17441C0.416631 6.12858 0.163066 7.21893 0.0901759 8.81552C0.0173145 10.4155 0 10.9262 0 15C0 19.0738 0.0172557 19.5846 0.0902635 21.1846C0.163125 22.7811 0.41669 23.8715 0.78753 24.8257C1.17085 25.8121 1.68372 26.6486 2.51763 27.4823C3.35153 28.3161 4.18808 28.8291 5.17441 29.2126C6.12858 29.5835 7.21893 29.8369 8.81552 29.9099C10.4154 29.9828 10.9262 30.0001 15.0001 30.0001C19.0739 30.0001 19.5846 29.9828 21.1847 29.9099C22.7812 29.8369 23.8716 29.5835 24.8258 29.2126C25.8122 28.8291 26.6486 28.3164 27.4824 27.4823C28.3162 26.6483 28.8292 25.8121 29.2127 24.8257C29.5836 23.8715 29.837 22.7811 29.91 21.1846C29.9829 19.5847 30.0002 19.0739 30.0002 15C30.0002 10.9261 29.9829 10.4155 29.91 8.81543C29.837 7.21875 29.5836 6.1285 29.2127 5.17433C28.8292 4.18799 28.3165 3.35145 27.4824 2.51754C26.6483 1.68363 25.8122 1.17076 24.8258 0.787441C23.8716 0.416631 22.7812 0.163066 21.1847 0.0901759C19.5846 0.0173438 19.0738 0 15 0ZM15 7.30222C10.7487 7.30222 7.30228 10.7486 7.30228 14.9999C7.30228 19.2513 10.7487 22.6978 15 22.6978C19.2513 22.6978 22.6978 19.2513 22.6978 15C22.6978 10.7487 19.2513 7.30228 15 7.30228V7.30222ZM15 20.0135C14.0084 20.0135 13.0391 19.7194 12.2146 19.1685C11.3901 18.6176 10.7475 17.8346 10.3681 16.9185C9.98862 16.0024 9.88934 14.9944 10.0828 14.0218C10.2762 13.0493 10.7537 12.156 11.4549 11.4548C12.1561 10.7537 13.0494 10.2762 14.0219 10.0827C14.9945 9.88928 16.0025 9.98857 16.9186 10.368C17.8347 10.7475 18.6178 11.3901 19.1686 12.2146C19.7195 13.0391 20.0136 14.0084 20.0135 15C20.0135 16.3297 19.4853 17.6049 18.5451 18.5451C17.6049 19.4853 16.3297 20.0135 15 20.0135V20.0135ZM24.7896 7.00652C24.7895 7.36177 24.6842 7.70904 24.4868 8.00441C24.2894 8.29978 24.0089 8.52999 23.6807 8.66593C23.3525 8.80186 22.9913 8.83742 22.6429 8.7681C22.2945 8.69879 21.9744 8.52771 21.7232 8.2765C21.472 8.0253 21.301 7.70525 21.2317 7.35682C21.1624 7.0084 21.198 6.64725 21.3339 6.31904C21.4699 5.99084 21.7001 5.71031 21.9955 5.51295C22.2908 5.31559 22.6381 5.21024 22.9934 5.21024C23.2292 5.21025 23.4628 5.25671 23.6808 5.34699C23.8987 5.43727 24.0967 5.56959 24.2635 5.7364C24.4303 5.9032 24.5626 6.10123 24.6529 6.31917C24.7431 6.53711 24.7896 6.77069 24.7896 7.00658V7.00652Z" fill="#AAAAAA"/>
</svg>
