<svg width="241" height="37" viewBox="0 0 241 37" fill="none" xmlns="http://www.w3.org/2000/svg">
<path d="M84.4766 17.6832C84.5653 16.4648 84.3423 15.244 83.8287 14.1354C83.5864 13.7735 83.2504 13.4842 82.8564 13.2983C82.4625 13.1124 82.0254 13.0369 81.5918 13.0799C81.2509 13.0804 80.9102 13.0982 80.571 13.1331L79.5414 13.2484V27.4398H74.2954V9.58527C74.7392 9.46109 75.2629 9.34579 75.8665 9.21274C76.4701 9.0797 77.1004 8.96439 77.7661 8.85796C78.4318 8.75152 79.1242 8.67169 79.8254 8.60961C80.5266 8.54752 81.2279 8.52978 81.9025 8.52978C83.0106 8.49101 84.116 8.66257 85.1601 9.03535C85.9118 9.32388 86.6106 9.73445 87.2283 10.2505C88.0156 9.69186 88.8878 9.26359 89.8114 8.98213C90.6718 8.70094 91.5692 8.54851 92.4743 8.52978C93.7191 8.48768 94.9597 8.6958 96.1225 9.14178C97.0232 9.52261 97.8071 10.1346 98.3948 10.9157C98.9715 11.7076 99.3683 12.6157 99.5576 13.5766C99.7728 14.7139 99.8768 15.8695 99.8683 17.0269V27.4398H94.6224V17.6832C94.7063 16.4651 94.4836 15.2453 93.9744 14.1354C93.7321 13.7735 93.3961 13.4842 93.0021 13.2983C92.6082 13.1124 92.1711 13.0369 91.7375 13.0799C90.8807 13.1339 90.0482 13.386 89.3054 13.8161C89.4692 14.3711 89.5734 14.942 89.6161 15.519C89.6693 16.1222 89.6871 16.7608 89.6871 17.4438V27.4398H84.4766V17.6832Z" fill="#AAAAAA"/>
<path d="M109.908 8.94727H104.662V27.4582H109.908V8.94727Z" fill="#AAAAAA"/>
<path d="M107.271 0.432617C106.651 0.432617 106.046 0.616246 105.53 0.960282C105.015 1.30432 104.613 1.79331 104.376 2.36542C104.139 2.93754 104.077 3.56707 104.198 4.17442C104.319 4.78177 104.617 5.33966 105.055 5.77753C105.494 6.21541 106.052 6.51361 106.66 6.63442C107.268 6.75523 107.898 6.69322 108.47 6.45625C109.043 6.21927 109.532 5.81796 109.876 5.30308C110.221 4.78819 110.404 4.18285 110.404 3.5636V0.432617H107.271Z" fill="#AAAAAA"/>
<path d="M125.024 17.684C125.11 16.4648 124.884 15.2438 124.367 14.1362C124.125 13.7743 123.789 13.485 123.395 13.2991C123.001 13.1132 122.564 13.0377 122.13 13.0807C121.802 13.0807 121.465 13.0807 121.11 13.1339L120.089 13.2492V27.4406H114.843V9.58603C115.287 9.46185 115.81 9.34655 116.405 9.21351C117 9.08046 117.639 8.96516 118.313 8.85872C118.988 8.75228 119.672 8.67246 120.373 8.61037C121.074 8.54828 121.766 8.53054 122.45 8.53054C123.558 8.49263 124.663 8.66416 125.707 9.03611C126.456 9.32464 127.152 9.73525 127.767 10.2513C129.336 9.17062 131.187 8.57247 133.093 8.53054C134.334 8.48939 135.572 8.6975 136.732 9.14255C137.635 9.51889 138.42 10.1317 139.004 10.9165C139.585 11.7063 139.982 12.6152 140.167 13.5774C140.39 14.7138 140.497 15.8697 140.487 17.0277V27.4406H135.241V17.684C135.327 16.4648 135.101 15.2438 134.584 14.1362C134.342 13.7743 134.006 13.485 133.612 13.2991C133.218 13.1132 132.781 13.0377 132.347 13.0807C131.49 13.1347 130.658 13.3867 129.915 13.8168C130.086 14.3705 130.193 14.9419 130.234 15.5198C130.234 16.1229 130.305 16.7616 130.305 17.4445V27.4406H125.059L125.024 17.684Z" fill="#AAAAAA"/>
<path d="M161.195 25.1431C161.195 28.1646 160.429 30.4116 158.896 31.884C157.364 33.3563 154.997 34.0896 151.795 34.0836C150.661 34.0801 149.53 33.9792 148.413 33.7821C147.35 33.5977 146.303 33.3339 145.28 32.9927L146.168 28.5579C147.97 29.2809 149.898 29.6396 151.84 29.6133C152.41 29.6713 152.986 29.614 153.533 29.4449C154.081 29.2757 154.588 28.9982 155.026 28.6288C155.66 27.9392 155.995 27.0274 155.958 26.0921V25.418C155.391 25.6802 154.795 25.8766 154.183 26.0034C153.537 26.1351 152.88 26.2005 152.221 26.1985C151.136 26.2679 150.048 26.1008 149.033 25.7088C148.019 25.3167 147.101 24.7091 146.345 23.9279C144.978 22.4112 144.303 20.2914 144.303 17.5684C144.284 16.3044 144.497 15.0475 144.934 13.8609C145.334 12.7811 145.964 11.8007 146.78 10.9871C147.631 10.1662 148.648 9.5371 149.762 9.14223C151.039 8.6914 152.386 8.47213 153.739 8.49475C154.378 8.49475 155.026 8.49475 155.692 8.57458C156.358 8.6544 157.023 8.71649 157.689 8.80519C158.355 8.89388 158.967 9.00919 159.571 9.14223C160.174 9.27528 160.707 9.40832 161.169 9.55024L161.195 25.1431ZM149.656 17.6039C149.656 20.5397 150.837 22.0387 153.207 22.0387C153.717 22.042 154.226 21.9703 154.715 21.8258C155.132 21.7049 155.534 21.5384 155.914 21.3291V12.9296C155.62 12.8738 155.324 12.8323 155.026 12.8054C154.671 12.8054 154.263 12.7522 153.792 12.7522C153.203 12.7116 152.613 12.8166 152.075 13.058C151.536 13.2993 151.065 13.6695 150.703 14.1358C149.992 15.1489 149.634 16.3673 149.683 17.6039H149.656Z" fill="#AAAAAA"/>
<path d="M177.297 13.5952C176.824 13.477 176.274 13.3528 175.646 13.2227C174.97 13.0951 174.284 13.0328 173.596 13.0364C173.201 13.0408 172.807 13.0675 172.415 13.1163C172.065 13.1571 171.718 13.2223 171.377 13.3114V27.4407H166.131V9.93206C167.224 9.57635 168.335 9.28026 169.46 9.0451C170.865 8.74081 172.3 8.59502 173.738 8.61049C174.022 8.61049 174.359 8.61049 174.759 8.61049C175.158 8.61049 175.558 8.69918 175.957 8.7524C176.356 8.80562 176.756 8.88545 177.155 8.96527C177.505 9.03216 177.847 9.13317 178.176 9.26684L177.297 13.5952Z" fill="#AAAAAA"/>
<path d="M197.943 18.1715C197.959 19.5286 197.743 20.8785 197.304 22.1629C196.921 23.3151 196.298 24.3731 195.476 25.2672C194.674 26.1236 193.7 26.8007 192.618 27.254C190.217 28.188 187.553 28.188 185.153 27.254C184.065 26.8051 183.087 26.1275 182.285 25.2672C181.459 24.3687 180.822 23.3129 180.413 22.1629C179.957 20.882 179.732 19.5308 179.747 18.1715C179.731 16.8136 179.963 15.4642 180.43 14.1891C180.857 13.0546 181.502 12.0149 182.33 11.129C183.15 10.2822 184.135 9.61206 185.224 9.15998C187.575 8.22532 190.195 8.22532 192.547 9.15998C193.633 9.60783 194.612 10.2787 195.423 11.129C196.242 12.0144 196.876 13.0549 197.287 14.1891C197.741 15.467 197.963 16.8156 197.943 18.1715ZM192.618 18.1715C192.693 16.8284 192.355 15.4944 191.65 14.3487C191.346 13.902 190.933 13.5403 190.45 13.2981C189.967 13.0559 189.43 12.9413 188.89 12.9651C188.346 12.9417 187.805 13.0564 187.318 13.2983C186.83 13.5403 186.412 13.9017 186.102 14.3487C185.386 15.4906 185.042 16.8261 185.117 18.1715C185.046 19.5277 185.39 20.8733 186.102 22.0298C186.406 22.4852 186.822 22.855 187.31 23.1035C187.798 23.352 188.342 23.471 188.89 23.449C189.433 23.4724 189.974 23.3539 190.458 23.105C190.942 22.8562 191.353 22.4856 191.65 22.0298C192.352 20.8696 192.689 19.5254 192.618 18.1715Z" fill="#AAAAAA"/>
<path d="M217.844 26.8284C216.708 27.1361 215.555 27.3789 214.391 27.5557C212.923 27.7802 211.439 27.8899 209.953 27.8839C208.615 27.9216 207.281 27.708 206.021 27.2542C205.056 26.8867 204.203 26.2755 203.544 25.4803C202.913 24.6803 202.468 23.7502 202.24 22.7573C201.971 21.6151 201.84 20.4448 201.849 19.2715V8.94727H207.095V18.6329C207.009 19.8883 207.241 21.1451 207.77 22.2872C208.045 22.6844 208.424 22.9991 208.865 23.1976C209.306 23.396 209.793 23.4707 210.273 23.4136C210.646 23.4136 211.045 23.3959 211.471 23.3604C211.888 23.3604 212.261 23.2895 212.598 23.2362V8.94727H217.844V26.8284Z" fill="#AAAAAA"/>
<path d="M240 18.207C240.015 19.527 239.836 20.842 239.467 22.1097C239.147 23.2155 238.61 24.2467 237.887 25.1431C237.204 25.9863 236.335 26.6602 235.349 27.1121C234.251 27.5985 233.06 27.8377 231.86 27.8128C231.174 27.8158 230.49 27.7474 229.819 27.6088C229.191 27.4669 228.579 27.2649 227.99 27.0057V33.9772H222.797V9.58574C223.268 9.44383 223.809 9.31078 224.422 9.17774C225.034 9.04469 225.673 8.93826 226.339 8.84069C227.005 8.74313 227.688 8.67217 228.381 8.61008C229.073 8.548 229.739 8.53026 230.378 8.53026C231.769 8.5045 233.154 8.73604 234.461 9.21322C235.601 9.62274 236.634 10.2823 237.485 11.1434C238.336 12.0045 238.983 13.0452 239.378 14.1891C239.814 15.483 240.024 16.8421 240 18.207ZM234.674 18.3489C234.744 16.9669 234.36 15.5998 233.582 14.4552C233.203 13.9661 232.709 13.5777 232.144 13.3241C231.579 13.0705 230.96 12.9594 230.342 13.0006C229.869 13.0006 229.434 13.0183 229.037 13.0538C228.638 13.0538 228.31 13.1247 228.052 13.1691V22.6418C228.447 22.884 228.879 23.0607 229.33 23.1651C229.854 23.3059 230.394 23.3775 230.937 23.378C233.396 23.378 234.647 21.7017 234.647 18.3489H234.674Z" fill="#AAAAAA"/>
<path d="M60.7412 30.2963V36.576H54.4567C53.6109 36.6078 52.7675 36.4688 51.9767 36.1673C51.186 35.8658 50.4642 35.408 49.8546 34.8213C49.2451 34.2346 48.7602 33.5311 48.4289 32.7529C48.0977 31.9746 47.927 31.1376 47.927 30.2919C47.927 29.4462 48.0977 28.6092 48.4289 27.8309C48.7602 27.0527 49.2451 26.3492 49.8546 25.7625C50.4642 25.1758 51.186 24.7181 51.9767 24.4166C52.7675 24.115 53.6109 23.976 54.4567 24.0078C55.2827 24.0078 56.1007 24.1705 56.8637 24.4866C57.6268 24.8028 58.32 25.2661 58.9036 25.8502C59.4873 26.4343 59.9501 27.1276 60.2654 27.8905C60.5807 28.6534 60.7424 29.4709 60.7412 30.2963ZM6.29337 24.0078C5.46659 24.0066 4.6477 24.1685 3.88362 24.4841C3.11955 24.7997 2.42531 25.2629 1.84068 25.847C1.25606 26.4312 0.792537 27.1249 0.47668 27.8884C0.160823 28.6519 -0.00116232 29.4702 6.27809e-06 30.2963V36.576H6.29337C7.92041 36.5149 9.46044 35.8261 10.5899 34.6543C11.7194 33.4825 12.3504 31.9189 12.3504 30.2919C12.3504 28.665 11.7194 27.1013 10.5899 25.9295C9.46044 24.7577 7.92041 24.0689 6.29337 24.0078ZM52.6104 1.83369C51.4323 0.659438 49.8362 0 48.1722 0C46.5082 0 44.9121 0.659438 43.734 1.83369L30.4194 15.1381L17.1048 1.83369C15.9018 0.795587 14.3501 0.250838 12.7617 0.308875C11.1732 0.366912 9.66551 1.02343 8.54153 2.14656C7.41756 3.26968 6.76053 4.77619 6.70245 6.36347C6.64437 7.95074 7.18953 9.50118 8.22843 10.7033L26.0256 28.4426C26.6084 29.0251 27.3003 29.4872 28.0618 29.8024C28.8233 30.1177 29.6395 30.2799 30.4638 30.2799C31.2881 30.2799 32.1043 30.1177 32.8658 29.8024C33.6273 29.4872 34.3192 29.0251 34.902 28.4426L52.6548 10.7033C53.2404 10.1167 53.7041 9.42001 54.0191 8.65348C54.3341 7.88695 54.4941 7.06571 54.49 6.2371C54.4858 5.40848 54.3176 4.58887 53.995 3.82551C53.6725 3.06215 53.2019 2.37013 52.6104 1.78934V1.83369Z" fill="#AAAAAA"/>
</svg>
