<svg width="241" height="37" viewBox="0 0 241 37" fill="none" xmlns="http://www.w3.org/2000/svg">
<path d="M84.4766 17.7393C84.5653 16.5209 84.3423 15.3 83.8287 14.1914C83.5864 13.8296 83.2504 13.5402 82.8564 13.3543C82.4625 13.1684 82.0254 13.093 81.5918 13.1359C81.2509 13.1364 80.9102 13.1542 80.571 13.1891L79.5414 13.3045V27.4959H74.2954V9.64129C74.7392 9.51712 75.2629 9.40181 75.8665 9.26877C76.4701 9.13572 77.1004 9.02042 77.7661 8.91398C78.4318 8.80755 79.1242 8.72772 79.8254 8.66563C80.5266 8.60355 81.2279 8.58581 81.9025 8.58581C83.0106 8.54704 84.116 8.71859 85.1601 9.09138C85.9118 9.37991 86.6106 9.79048 87.2283 10.3065C88.0156 9.74789 88.8878 9.31962 89.8114 9.03816C90.6718 8.75697 91.5692 8.60454 92.4743 8.58581C93.7191 8.54371 94.9597 8.75182 96.1225 9.19781C97.0232 9.57864 97.8071 10.1906 98.3948 10.9717C98.9715 11.7636 99.3683 12.6717 99.5576 13.6326C99.7728 14.77 99.8768 15.9255 99.8683 17.0829V27.4959H94.6224V17.7393C94.7063 16.5211 94.4836 15.3014 93.9744 14.1914C93.7321 13.8296 93.3961 13.5402 93.0021 13.3543C92.6082 13.1684 92.1711 13.093 91.7375 13.1359C90.8807 13.19 90.0482 13.442 89.3054 13.8721C89.4692 14.4271 89.5734 14.998 89.6161 15.5751C89.6693 16.1782 89.6871 16.8168 89.6871 17.4998V27.4959H84.4766V17.7393Z" fill="#00141E"/>
<path d="M109.908 9.00268H104.662V27.5136H109.908V9.00268Z" fill="#00141E"/>
<path d="M107.271 0.487831C106.652 0.487831 106.046 0.67146 105.531 1.0155C105.015 1.35953 104.614 1.84853 104.376 2.42064C104.139 2.99275 104.077 3.62228 104.198 4.22964C104.319 4.83699 104.617 5.39487 105.056 5.83275C105.494 6.27062 106.052 6.56882 106.66 6.68963C107.268 6.81044 107.898 6.74844 108.47 6.51146C109.043 6.27448 109.532 5.87318 109.877 5.35829C110.221 4.8434 110.405 4.23806 110.405 3.61881V0.487831H107.271Z" fill="#00141E"/>
<path d="M125.024 17.7393C125.11 16.5201 124.884 15.2991 124.367 14.1914C124.125 13.8296 123.789 13.5402 123.395 13.3543C123.001 13.1684 122.564 13.093 122.13 13.1359C121.802 13.1359 121.465 13.1359 121.11 13.1891L120.089 13.3044V27.4959H114.843V9.64129C115.287 9.51711 115.81 9.40181 116.405 9.26876C117 9.13572 117.639 9.02042 118.313 8.91398C118.988 8.80754 119.672 8.72772 120.373 8.66563C121.074 8.60354 121.766 8.5858 122.45 8.5858C123.558 8.54789 124.663 8.71942 125.707 9.09137C126.456 9.37989 127.152 9.79051 127.767 10.3065C129.336 9.22588 131.187 8.62773 133.093 8.5858C134.334 8.54465 135.572 8.75276 136.732 9.19781C137.635 9.57415 138.42 10.187 139.004 10.9717C139.585 11.7616 139.982 12.6705 140.167 13.6326C140.39 14.769 140.497 15.925 140.487 17.0829V27.4959H135.241V17.7393C135.327 16.5201 135.101 15.2991 134.584 14.1914C134.342 13.8296 134.006 13.5402 133.612 13.3543C133.218 13.1684 132.781 13.093 132.347 13.1359C131.49 13.19 130.658 13.442 129.915 13.8721C130.086 14.4258 130.193 14.9971 130.234 15.5751C130.234 16.1782 130.305 16.8168 130.305 17.4998V27.4959H125.059L125.024 17.7393Z" fill="#00141E"/>
<path d="M161.195 25.1986C161.195 28.2202 160.429 30.4672 158.896 31.9395C157.364 33.4119 154.997 34.1451 151.795 34.1392C150.661 34.1357 149.53 34.0348 148.413 33.8376C147.35 33.6533 146.303 33.3894 145.28 33.0482L146.168 28.6134C147.97 29.3364 149.898 29.6952 151.84 29.6689C152.41 29.7269 152.986 29.6696 153.533 29.5005C154.081 29.3313 154.588 29.0538 155.026 28.6844C155.66 27.9948 155.995 27.083 155.958 26.1477V25.4736C155.391 25.7358 154.795 25.9322 154.183 26.059C153.537 26.1907 152.88 26.256 152.221 26.2541C151.136 26.3235 150.048 26.1564 149.033 25.7643C148.019 25.3723 147.101 24.7647 146.345 23.9835C144.978 22.4668 144.303 20.3469 144.303 17.624C144.284 16.3599 144.497 15.1031 144.934 13.9165C145.334 12.8367 145.964 11.8563 146.78 11.0427C147.631 10.2218 148.648 9.59268 149.762 9.19781C151.039 8.74698 152.386 8.5277 153.739 8.55032C154.378 8.55032 155.026 8.55032 155.692 8.63015C156.358 8.70998 157.023 8.77206 157.689 8.86076C158.355 8.94946 158.967 9.06476 159.571 9.19781C160.174 9.33085 160.707 9.4639 161.169 9.60581L161.195 25.1986ZM149.656 17.6594C149.656 20.5953 150.837 22.0943 153.207 22.0943C153.717 22.0976 154.226 22.0259 154.715 21.8814C155.132 21.7605 155.534 21.5939 155.914 21.3847V12.9851C155.62 12.9293 155.324 12.8879 155.026 12.861C154.671 12.861 154.263 12.8077 153.792 12.8077C153.203 12.7672 152.613 12.8722 152.075 13.1135C151.536 13.3549 151.065 13.725 150.703 14.1914C149.992 15.2045 149.634 16.4229 149.683 17.6594H149.656Z" fill="#00141E"/>
<path d="M177.297 13.6504C176.824 13.5321 176.273 13.4079 175.646 13.2778C174.97 13.1503 174.284 13.0879 173.596 13.0916C173.201 13.096 172.807 13.1226 172.415 13.1714C172.065 13.2122 171.718 13.2774 171.377 13.3665V27.4959H166.131V9.98721C167.223 9.6315 168.334 9.3354 169.459 9.10024C170.865 8.79595 172.3 8.65017 173.738 8.66563C174.022 8.66563 174.359 8.66563 174.758 8.66563C175.158 8.66563 175.557 8.75433 175.957 8.80755C176.356 8.86076 176.756 8.94059 177.155 9.02042C177.504 9.08731 177.846 9.18831 178.176 9.32199L177.297 13.6504Z" fill="#00141E"/>
<path d="M197.944 18.2271C197.96 19.5842 197.743 20.934 197.305 22.2184C196.921 23.3707 196.298 24.4287 195.476 25.3228C194.674 26.1791 193.7 26.8562 192.618 27.3096C190.217 28.2435 187.553 28.2435 185.153 27.3096C184.065 26.8607 183.088 26.1831 182.286 25.3228C181.459 24.4243 180.822 23.3685 180.413 22.2184C179.957 20.9376 179.732 19.5863 179.747 18.2271C179.731 16.8692 179.963 15.5197 180.431 14.2446C180.857 13.1101 181.502 12.0704 182.33 11.1846C183.15 10.3377 184.135 9.66762 185.224 9.21555C187.575 8.28089 190.195 8.28089 192.547 9.21555C193.633 9.6634 194.613 10.3342 195.423 11.1846C196.242 12.07 196.876 13.1105 197.287 14.2446C197.741 15.5225 197.963 16.8711 197.944 18.2271ZM192.618 18.2271C192.693 16.884 192.356 15.55 191.65 14.4043C191.347 13.9575 190.933 13.5958 190.45 13.3537C189.967 13.1115 189.43 12.9968 188.89 13.0206C188.346 12.9973 187.805 13.112 187.318 13.3539C186.831 13.5959 186.412 13.9572 186.103 14.4043C185.387 15.5462 185.042 16.8817 185.117 18.2271C185.047 19.5833 185.39 20.9289 186.103 22.0854C186.406 22.5408 186.822 22.9105 187.311 23.159C187.799 23.4076 188.342 23.5265 188.89 23.5045C189.434 23.528 189.974 23.4094 190.458 23.1606C190.942 22.9117 191.353 22.5412 191.65 22.0854C192.352 20.9252 192.689 19.581 192.618 18.2271Z" fill="#00141E"/>
<path d="M217.844 26.8839C216.708 27.1915 215.555 27.4343 214.391 27.6112C212.923 27.8356 211.439 27.9453 209.953 27.9393C208.615 27.977 207.281 27.7634 206.021 27.3096C205.056 26.9421 204.203 26.3309 203.544 25.5357C202.913 24.7357 202.468 23.8057 202.24 22.8127C201.971 21.6705 201.84 20.5003 201.849 19.3269V9.00268H207.095V18.6883C207.009 19.9437 207.241 21.2005 207.77 22.3426C208.045 22.7398 208.424 23.0545 208.865 23.253C209.306 23.4514 209.793 23.5261 210.273 23.469C210.646 23.469 211.045 23.4513 211.471 23.4158C211.888 23.4158 212.261 23.3449 212.598 23.2917V9.00268H217.844V26.8839Z" fill="#00141E"/>
<path d="M240 18.2626C240.015 19.5825 239.836 20.8975 239.467 22.1652C239.147 23.2711 238.61 24.3023 237.887 25.1986C237.205 26.0418 236.336 26.7157 235.349 27.1677C234.252 27.6541 233.061 27.8933 231.86 27.8684C231.175 27.8713 230.49 27.8029 229.819 27.6644C229.191 27.5224 228.579 27.3204 227.99 27.0612V34.0328H222.798V9.64129C223.268 9.49938 223.81 9.36633 224.422 9.23329C225.034 9.10024 225.674 8.99381 226.339 8.89624C227.005 8.79868 227.689 8.72772 228.381 8.66563C229.073 8.60354 229.739 8.58581 230.378 8.58581C231.77 8.56005 233.154 8.79159 234.461 9.26877C235.601 9.67829 236.634 10.3378 237.485 11.1989C238.336 12.06 238.983 13.1008 239.379 14.2446C239.814 15.5386 240.025 16.8976 240 18.2626ZM234.674 18.4045C234.744 17.0224 234.361 15.6554 233.582 14.5107C233.203 14.0217 232.709 13.6333 232.144 13.3796C231.579 13.126 230.96 13.0149 230.343 13.0561C229.869 13.0561 229.434 13.0738 229.038 13.1093C228.638 13.1093 228.31 13.1803 228.052 13.2246V22.6974C228.447 22.9396 228.879 23.1163 229.331 23.2207C229.855 23.3614 230.395 23.433 230.937 23.4336C233.396 23.4336 234.648 21.7572 234.648 18.4045H234.674Z" fill="#00141E"/>
<path d="M60.7412 30.352V36.6317H54.4567C53.6109 36.6634 52.7675 36.5244 51.9767 36.2229C51.186 35.9214 50.4642 35.4636 49.8546 34.8769C49.2451 34.2903 48.7602 33.5868 48.4289 32.8085C48.0977 32.0303 47.927 31.1932 47.927 30.3475C47.927 29.5018 48.0977 28.6648 48.4289 27.8866C48.7602 27.1083 49.2451 26.4048 49.8546 25.8181C50.4642 25.2315 51.186 24.7737 51.9767 24.4722C52.7675 24.1707 53.6109 24.0316 54.4567 24.0634C55.2827 24.0634 56.1007 24.2261 56.8637 24.5423C57.6268 24.8584 58.32 25.3217 58.9036 25.9058C59.4873 26.4899 59.9501 27.1832 60.2654 27.9461C60.5807 28.709 60.7424 29.5266 60.7412 30.352ZM6.29337 24.0634C5.46659 24.0622 4.6477 24.2241 3.88362 24.5397C3.11955 24.8553 2.42531 25.3185 1.84068 25.9027C1.25606 26.4869 0.792537 27.1806 0.47668 27.9441C0.160823 28.7075 -0.00116232 29.5258 6.27809e-06 30.352V36.6317H6.29337C7.92041 36.5706 9.46044 35.8818 10.5899 34.7099C11.7194 33.5381 12.3504 31.9745 12.3504 30.3475C12.3504 28.7206 11.7194 27.157 10.5899 25.9851C9.46044 24.8133 7.92041 24.1245 6.29337 24.0634ZM52.6104 1.88931C51.4323 0.715062 49.8362 0.055624 48.1722 0.055624C46.5082 0.055624 44.9121 0.715062 43.734 1.88931L30.4194 15.1938L17.1048 1.88931C15.9018 0.851211 14.3501 0.306462 12.7617 0.364499C11.1732 0.422536 9.66551 1.07906 8.54153 2.20218C7.41756 3.3253 6.76053 4.83182 6.70245 6.41909C6.64437 8.00636 7.18953 9.5568 8.22843 10.7589L26.0256 28.4982C26.6084 29.0807 27.3003 29.5428 28.0618 29.858C28.8233 30.1733 29.6395 30.3356 30.4638 30.3356C31.2881 30.3356 32.1043 30.1733 32.8658 29.858C33.6273 29.5428 34.3192 29.0807 34.902 28.4982L52.6548 10.7589C53.2404 10.1723 53.7041 9.47564 54.0191 8.70911C54.3341 7.94258 54.4941 7.12134 54.49 6.29272C54.4858 5.4641 54.3176 4.6445 53.995 3.88113C53.6725 3.11777 53.2019 2.42576 52.6104 1.84496V1.88931Z" fill="#8FBF00"/>
</svg>
