<svg width="30" height="30" viewBox="0 0 30 30" fill="none" xmlns="http://www.w3.org/2000/svg">
<path fill-rule="evenodd" clip-rule="evenodd" d="M29.9979 22.387C29.9979 22.5514 29.9928 22.9079 29.9831 23.1827C29.9589 23.8561 29.9055 24.7236 29.8248 25.1207C29.7167 25.6837 29.5339 26.2297 29.2814 26.7444C28.7252 27.841 27.8338 28.7317 26.7367 29.287C26.2188 29.5399 25.6695 29.7225 25.1032 29.83C24.7113 29.9096 23.8494 29.9615 23.1801 29.9841C22.9048 29.9938 22.5483 29.9985 22.3849 29.9985H7.61301C7.44863 29.9985 7.09267 29.9933 6.81734 29.9836C6.14393 29.9594 5.27635 29.906 4.87929 29.8254C4.31631 29.7172 3.77027 29.5344 3.2556 29.2819C2.15926 28.7255 1.2688 27.8341 0.713479 26.7372C0.4604 26.2194 0.277632 25.67 0.170023 25.1038C0.0909184 24.7118 0.0385248 23.8499 0.0159236 23.1806C0.00513664 22.9048 0 22.5498 0 22.3849L0.00256832 7.61301C0.00256832 7.44863 0.00719129 7.09267 0.0174646 6.81734C0.0416067 6.14393 0.0945141 5.27635 0.175673 4.87929C0.283858 4.31631 0.46662 3.77027 0.719129 3.2556C1.27544 2.15918 2.16684 1.26868 3.26382 0.713479C3.78146 0.460312 4.33064 0.277539 4.89675 0.170023C5.29073 0.0909184 6.15112 0.0385248 6.81991 0.0148962C7.09575 0.00513663 7.45172 0 7.61557 0L22.387 0.00256832C22.5514 0.00256832 22.9079 0.00719129 23.1827 0.0174646C23.8561 0.0416067 24.7236 0.0950277 25.1207 0.175673C25.6837 0.283858 26.2297 0.46662 26.7444 0.719129C27.8412 1.27516 28.7318 2.16686 29.2865 3.26433C29.5399 3.78188 29.7227 4.33109 29.83 4.89727C29.9091 5.28919 29.9615 6.15163 29.9841 6.82042C29.9938 7.09626 29.9985 7.45223 29.9985 7.61609L29.9979 22.387Z" fill="url(#paint0_linear)"/>
<path fill-rule="evenodd" clip-rule="evenodd" d="M22.8898 7.18153C21.8988 6.18493 20.7199 5.39483 19.4214 4.85698C18.1229 4.31913 16.7306 4.04423 15.3251 4.04818C9.43082 4.04613 4.63321 8.84169 4.63115 14.736C4.62941 16.6123 5.12269 18.4559 6.06119 20.0807L4.54126 25.6205L10.2106 24.134C11.7787 24.9876 13.5356 25.4349 15.321 25.4351H15.3251C21.2189 25.4351 26.0165 20.639 26.0191 14.7447C26.0234 13.3398 25.749 11.9479 25.2119 10.6497C24.6747 9.35154 23.8855 8.17273 22.8898 7.18153ZM15.3251 23.6285H15.3215C13.7298 23.6288 12.1673 23.2011 10.7977 22.3901L10.473 22.1975L7.10906 23.0804L8.00695 19.8017L7.79583 19.4679C6.9054 18.0515 6.43417 16.412 6.43668 14.7391C6.43668 9.84025 10.4258 5.85268 15.3287 5.85268C16.4958 5.85289 17.6514 6.08299 18.7296 6.52986C19.8078 6.97672 20.7874 7.6316 21.6124 8.45708C22.4375 9.28256 23.0918 10.2625 23.5381 11.3409C23.9844 12.4193 24.2139 13.575 24.2135 14.7421C24.2115 19.6435 20.2239 23.6285 15.3251 23.6285ZM20.2008 16.9735C19.9332 16.8399 18.6197 16.1938 18.3747 16.1044C18.1297 16.015 17.9515 15.9708 17.7737 16.2384C17.596 16.5061 17.0834 17.1076 16.9272 17.2858C16.7711 17.4641 16.6159 17.4861 16.3483 17.3526C16.0807 17.219 15.2183 16.9365 14.1997 16.0268C13.4056 15.3185 12.8693 14.4437 12.7131 14.1776C12.557 13.9116 12.6967 13.7667 12.8302 13.6326C12.9504 13.5129 13.0979 13.3208 13.2314 13.1647C13.365 13.0085 13.4097 12.8971 13.4985 12.7188C13.5874 12.5406 13.5432 12.3844 13.4764 12.2509C13.4097 12.1173 12.8749 10.8023 12.6546 10.2676C12.4373 9.74677 12.2174 9.81714 12.0531 9.80892C11.899 9.80122 11.7192 9.79967 11.5394 9.79967C11.404 9.80324 11.2708 9.8348 11.1482 9.89234C11.0256 9.94989 10.9162 10.0322 10.827 10.1341C10.5819 10.4012 9.89209 11.0479 9.89209 12.3623C9.89209 13.6768 10.8496 14.9471 10.9831 15.1259C11.1167 15.3046 12.8672 18.0024 15.5475 19.1591C16.0449 19.3733 16.5533 19.561 17.0705 19.7216C17.7111 19.9271 18.2936 19.8962 18.7538 19.8274C19.2675 19.7509 20.3349 19.1812 20.5573 18.5571C20.7797 17.933 20.7802 17.3988 20.7114 17.2873C20.6426 17.1759 20.4679 17.1086 20.2008 16.9745V16.9735Z" fill="white"/>
<defs>
<linearGradient id="paint0_linear" x1="15" y1="30" x2="15" y2="0" gradientUnits="userSpaceOnUse">
<stop stop-color="#25CF43"/>
<stop offset="1" stop-color="#61FD7D"/>
</linearGradient>
</defs>
</svg>
